<mxfile host="app.diagrams.net" modified="2021-09-16T00:06:04.893Z" agent="5.0 (Windows NT 10.0; Win64; x64) AppleWebKit/537.36 (KHTML, like Gecko) Chrome/93.0.4577.63 Safari/537.36" etag="oW--spEPnABqVWViewjx" version="15.2.7" type="github">
  <diagram id="J2NB9XXZ9rXnAfuIrIxE" name="Page-1">
    <mxGraphModel dx="4172" dy="1985" grid="1" gridSize="10" guides="1" tooltips="1" connect="1" arrows="1" fold="1" page="1" pageScale="1" pageWidth="827" pageHeight="1169" background="none" math="0" shadow="0">
      <root>
        <mxCell id="0" />
        <mxCell id="1" parent="0" />
        <mxCell id="9S0l-wIRz3GOgGVBHp39-60" style="edgeStyle=orthogonalEdgeStyle;rounded=0;orthogonalLoop=1;jettySize=auto;html=1;" edge="1" parent="1" source="9S0l-wIRz3GOgGVBHp39-1" target="9S0l-wIRz3GOgGVBHp39-49">
          <mxGeometry relative="1" as="geometry" />
        </mxCell>
        <mxCell id="9S0l-wIRz3GOgGVBHp39-61" style="edgeStyle=orthogonalEdgeStyle;rounded=0;orthogonalLoop=1;jettySize=auto;html=1;" edge="1" parent="1" source="9S0l-wIRz3GOgGVBHp39-1" target="9S0l-wIRz3GOgGVBHp39-51">
          <mxGeometry relative="1" as="geometry">
            <mxPoint x="671.25" y="90" as="targetPoint" />
          </mxGeometry>
        </mxCell>
        <mxCell id="9S0l-wIRz3GOgGVBHp39-1" value="Inicio" style="ellipse;whiteSpace=wrap;html=1;" vertex="1" parent="1">
          <mxGeometry x="290" y="10" width="120" height="40" as="geometry" />
        </mxCell>
        <mxCell id="9S0l-wIRz3GOgGVBHp39-13" style="edgeStyle=orthogonalEdgeStyle;rounded=0;orthogonalLoop=1;jettySize=auto;html=1;" edge="1" parent="1" source="9S0l-wIRz3GOgGVBHp39-2" target="9S0l-wIRz3GOgGVBHp39-12">
          <mxGeometry relative="1" as="geometry" />
        </mxCell>
        <mxCell id="9S0l-wIRz3GOgGVBHp39-15" value="Text" style="edgeLabel;html=1;align=center;verticalAlign=middle;resizable=0;points=[];" vertex="1" connectable="0" parent="9S0l-wIRz3GOgGVBHp39-13">
          <mxGeometry x="-0.2444" y="1" relative="1" as="geometry">
            <mxPoint as="offset" />
          </mxGeometry>
        </mxCell>
        <mxCell id="9S0l-wIRz3GOgGVBHp39-16" value="False" style="edgeLabel;html=1;align=center;verticalAlign=middle;resizable=0;points=[];" vertex="1" connectable="0" parent="9S0l-wIRz3GOgGVBHp39-13">
          <mxGeometry x="-0.2857" y="-1" relative="1" as="geometry">
            <mxPoint as="offset" />
          </mxGeometry>
        </mxCell>
        <mxCell id="9S0l-wIRz3GOgGVBHp39-69" style="edgeStyle=orthogonalEdgeStyle;rounded=0;orthogonalLoop=1;jettySize=auto;html=1;" edge="1" parent="1" source="9S0l-wIRz3GOgGVBHp39-2" target="9S0l-wIRz3GOgGVBHp39-47">
          <mxGeometry relative="1" as="geometry" />
        </mxCell>
        <mxCell id="9S0l-wIRz3GOgGVBHp39-2" value="data_evento&amp;nbsp; &amp;gt;&lt;br&gt;data_atual" style="rhombus;whiteSpace=wrap;html=1;" vertex="1" parent="1">
          <mxGeometry x="450" y="350" width="120" height="120" as="geometry" />
        </mxCell>
        <mxCell id="9S0l-wIRz3GOgGVBHp39-11" style="edgeStyle=orthogonalEdgeStyle;rounded=0;orthogonalLoop=1;jettySize=auto;html=1;entryX=0.5;entryY=0;entryDx=0;entryDy=0;" edge="1" parent="1" source="9S0l-wIRz3GOgGVBHp39-4" target="9S0l-wIRz3GOgGVBHp39-2">
          <mxGeometry relative="1" as="geometry" />
        </mxCell>
        <mxCell id="9S0l-wIRz3GOgGVBHp39-4" value="Buscar data_atual" style="rounded=0;whiteSpace=wrap;html=1;" vertex="1" parent="1">
          <mxGeometry x="450" y="250" width="120" height="50" as="geometry" />
        </mxCell>
        <mxCell id="9S0l-wIRz3GOgGVBHp39-66" style="edgeStyle=orthogonalEdgeStyle;rounded=0;orthogonalLoop=1;jettySize=auto;html=1;entryX=1.027;entryY=0.304;entryDx=0;entryDy=0;entryPerimeter=0;" edge="1" parent="1" source="9S0l-wIRz3GOgGVBHp39-6" target="9S0l-wIRz3GOgGVBHp39-4">
          <mxGeometry relative="1" as="geometry" />
        </mxCell>
        <mxCell id="9S0l-wIRz3GOgGVBHp39-6" value="nome_evento&lt;br&gt;data_evento" style="shape=manualInput;whiteSpace=wrap;html=1;" vertex="1" parent="1">
          <mxGeometry x="610" y="230" width="130" height="70" as="geometry" />
        </mxCell>
        <mxCell id="9S0l-wIRz3GOgGVBHp39-68" style="edgeStyle=orthogonalEdgeStyle;rounded=0;orthogonalLoop=1;jettySize=auto;html=1;entryX=1;entryY=0.5;entryDx=0;entryDy=0;entryPerimeter=0;" edge="1" parent="1" source="9S0l-wIRz3GOgGVBHp39-12" target="9S0l-wIRz3GOgGVBHp39-51">
          <mxGeometry relative="1" as="geometry" />
        </mxCell>
        <mxCell id="9S0l-wIRz3GOgGVBHp39-12" value="&lt;font style=&quot;font-size: 10px&quot;&gt;Cadastro não Permitido!&lt;br&gt;Data do Evento é anterior a data Atual.&lt;br&gt;Informe&amp;nbsp; uma data válida!&lt;br&gt;&lt;/font&gt;" style="shape=display;whiteSpace=wrap;html=1;" vertex="1" parent="1">
          <mxGeometry x="700" y="380" width="230" height="60" as="geometry" />
        </mxCell>
        <mxCell id="9S0l-wIRz3GOgGVBHp39-99" style="edgeStyle=orthogonalEdgeStyle;rounded=0;orthogonalLoop=1;jettySize=auto;html=1;entryX=0.467;entryY=0.012;entryDx=0;entryDy=0;entryPerimeter=0;" edge="1" parent="1" source="9S0l-wIRz3GOgGVBHp39-17" target="9S0l-wIRz3GOgGVBHp39-22">
          <mxGeometry relative="1" as="geometry" />
        </mxCell>
        <mxCell id="9S0l-wIRz3GOgGVBHp39-17" value="&lt;font style=&quot;font-size: 10px&quot;&gt;nome_usuario&lt;br&gt;data_nasc&lt;/font&gt;" style="shape=manualInput;whiteSpace=wrap;html=1;" vertex="1" parent="1">
          <mxGeometry x="-37.5" y="620" width="130" height="60" as="geometry" />
        </mxCell>
        <mxCell id="9S0l-wIRz3GOgGVBHp39-97" style="edgeStyle=orthogonalEdgeStyle;rounded=0;orthogonalLoop=1;jettySize=auto;html=1;entryX=0.5;entryY=0.333;entryDx=0;entryDy=0;entryPerimeter=0;" edge="1" parent="1" source="9S0l-wIRz3GOgGVBHp39-20" target="9S0l-wIRz3GOgGVBHp39-17">
          <mxGeometry relative="1" as="geometry" />
        </mxCell>
        <mxCell id="9S0l-wIRz3GOgGVBHp39-20" value="Informe os dados do participante:" style="shape=display;whiteSpace=wrap;html=1;" vertex="1" parent="1">
          <mxGeometry x="-52.5" y="560" width="160" height="40" as="geometry" />
        </mxCell>
        <mxCell id="9S0l-wIRz3GOgGVBHp39-112" style="edgeStyle=orthogonalEdgeStyle;rounded=0;orthogonalLoop=1;jettySize=auto;html=1;entryX=0.5;entryY=0;entryDx=0;entryDy=0;" edge="1" parent="1" source="9S0l-wIRz3GOgGVBHp39-22" target="9S0l-wIRz3GOgGVBHp39-24">
          <mxGeometry relative="1" as="geometry" />
        </mxCell>
        <mxCell id="9S0l-wIRz3GOgGVBHp39-22" value="idade = data_atual - data_nascimento" style="rounded=0;whiteSpace=wrap;html=1;" vertex="1" parent="1">
          <mxGeometry x="-42.5" y="710" width="150" height="60" as="geometry" />
        </mxCell>
        <mxCell id="9S0l-wIRz3GOgGVBHp39-29" style="edgeStyle=orthogonalEdgeStyle;rounded=0;orthogonalLoop=1;jettySize=auto;html=1;entryX=0;entryY=0.5;entryDx=0;entryDy=0;entryPerimeter=0;" edge="1" parent="1" source="9S0l-wIRz3GOgGVBHp39-24" target="9S0l-wIRz3GOgGVBHp39-25">
          <mxGeometry relative="1" as="geometry" />
        </mxCell>
        <mxCell id="9S0l-wIRz3GOgGVBHp39-31" value="False" style="edgeLabel;html=1;align=center;verticalAlign=middle;resizable=0;points=[];" vertex="1" connectable="0" parent="9S0l-wIRz3GOgGVBHp39-29">
          <mxGeometry x="-0.2333" y="-1" relative="1" as="geometry">
            <mxPoint as="offset" />
          </mxGeometry>
        </mxCell>
        <mxCell id="9S0l-wIRz3GOgGVBHp39-113" style="edgeStyle=orthogonalEdgeStyle;rounded=0;orthogonalLoop=1;jettySize=auto;html=1;entryX=0.5;entryY=0;entryDx=0;entryDy=0;" edge="1" parent="1" source="9S0l-wIRz3GOgGVBHp39-24" target="9S0l-wIRz3GOgGVBHp39-36">
          <mxGeometry relative="1" as="geometry" />
        </mxCell>
        <mxCell id="9S0l-wIRz3GOgGVBHp39-114" value="True" style="edgeLabel;html=1;align=center;verticalAlign=middle;resizable=0;points=[];" vertex="1" connectable="0" parent="9S0l-wIRz3GOgGVBHp39-113">
          <mxGeometry x="-0.1733" y="1" relative="1" as="geometry">
            <mxPoint as="offset" />
          </mxGeometry>
        </mxCell>
        <mxCell id="9S0l-wIRz3GOgGVBHp39-24" value="idade &amp;gt;= 18" style="rhombus;whiteSpace=wrap;html=1;" vertex="1" parent="1">
          <mxGeometry x="-7.5" y="820" width="80" height="80" as="geometry" />
        </mxCell>
        <mxCell id="9S0l-wIRz3GOgGVBHp39-28" style="edgeStyle=orthogonalEdgeStyle;rounded=0;orthogonalLoop=1;jettySize=auto;html=1;entryX=0;entryY=0.5;entryDx=0;entryDy=0;" edge="1" parent="1" source="9S0l-wIRz3GOgGVBHp39-25" target="9S0l-wIRz3GOgGVBHp39-26">
          <mxGeometry relative="1" as="geometry" />
        </mxCell>
        <mxCell id="9S0l-wIRz3GOgGVBHp39-25" value="&lt;font style=&quot;font-size: 10px&quot;&gt;Cadastro não Permitido!&lt;br&gt;Usuário possui menos de 18 anos!&lt;br&gt;&lt;/font&gt;" style="shape=display;whiteSpace=wrap;html=1;" vertex="1" parent="1">
          <mxGeometry x="380" y="750" width="210" height="60" as="geometry" />
        </mxCell>
        <mxCell id="9S0l-wIRz3GOgGVBHp39-26" value="Fim" style="ellipse;whiteSpace=wrap;html=1;" vertex="1" parent="1">
          <mxGeometry x="740" y="880" width="120" height="40" as="geometry" />
        </mxCell>
        <mxCell id="9S0l-wIRz3GOgGVBHp39-87" style="edgeStyle=orthogonalEdgeStyle;rounded=0;orthogonalLoop=1;jettySize=auto;html=1;entryX=0.573;entryY=0.049;entryDx=0;entryDy=0;entryPerimeter=0;" edge="1" parent="1" source="9S0l-wIRz3GOgGVBHp39-33" target="9S0l-wIRz3GOgGVBHp39-35">
          <mxGeometry relative="1" as="geometry">
            <Array as="points">
              <mxPoint x="114.5" y="370" />
              <mxPoint x="36.5" y="370" />
            </Array>
          </mxGeometry>
        </mxCell>
        <mxCell id="9S0l-wIRz3GOgGVBHp39-33" value="listarParticipantes" style="rounded=0;whiteSpace=wrap;html=1;" vertex="1" parent="1">
          <mxGeometry x="52.5" y="310" width="125" height="40" as="geometry" />
        </mxCell>
        <mxCell id="9S0l-wIRz3GOgGVBHp39-88" style="edgeStyle=orthogonalEdgeStyle;rounded=0;orthogonalLoop=1;jettySize=auto;html=1;entryX=0;entryY=0;entryDx=116.25;entryDy=60;entryPerimeter=0;" edge="1" parent="1" source="9S0l-wIRz3GOgGVBHp39-35" target="9S0l-wIRz3GOgGVBHp39-45">
          <mxGeometry relative="1" as="geometry">
            <mxPoint x="157.5" y="434.9999999999998" as="targetPoint" />
          </mxGeometry>
        </mxCell>
        <mxCell id="9S0l-wIRz3GOgGVBHp39-89" value="True" style="edgeLabel;html=1;align=center;verticalAlign=middle;resizable=0;points=[];" vertex="1" connectable="0" parent="9S0l-wIRz3GOgGVBHp39-88">
          <mxGeometry x="-0.3231" y="1" relative="1" as="geometry">
            <mxPoint as="offset" />
          </mxGeometry>
        </mxCell>
        <mxCell id="9S0l-wIRz3GOgGVBHp39-92" style="edgeStyle=orthogonalEdgeStyle;rounded=0;orthogonalLoop=1;jettySize=auto;html=1;entryX=0.5;entryY=0.024;entryDx=0;entryDy=0;entryPerimeter=0;" edge="1" parent="1" source="9S0l-wIRz3GOgGVBHp39-35" target="9S0l-wIRz3GOgGVBHp39-20">
          <mxGeometry relative="1" as="geometry" />
        </mxCell>
        <mxCell id="9S0l-wIRz3GOgGVBHp39-96" value="False" style="edgeLabel;html=1;align=center;verticalAlign=middle;resizable=0;points=[];" vertex="1" connectable="0" parent="9S0l-wIRz3GOgGVBHp39-92">
          <mxGeometry x="0.281" relative="1" as="geometry">
            <mxPoint as="offset" />
          </mxGeometry>
        </mxCell>
        <mxCell id="9S0l-wIRz3GOgGVBHp39-35" value="listarParticipantes&lt;br&gt;&amp;gt;= 100" style="rhombus;whiteSpace=wrap;html=1;" vertex="1" parent="1">
          <mxGeometry x="-37.5" y="380" width="130" height="110" as="geometry" />
        </mxCell>
        <mxCell id="9S0l-wIRz3GOgGVBHp39-116" style="edgeStyle=orthogonalEdgeStyle;rounded=0;orthogonalLoop=1;jettySize=auto;html=1;" edge="1" parent="1" source="9S0l-wIRz3GOgGVBHp39-36" target="9S0l-wIRz3GOgGVBHp39-115">
          <mxGeometry relative="1" as="geometry" />
        </mxCell>
        <mxCell id="9S0l-wIRz3GOgGVBHp39-36" value="Cadastrar Participante" style="rounded=0;whiteSpace=wrap;html=1;" vertex="1" parent="1">
          <mxGeometry x="-27.5" y="950" width="120" height="40" as="geometry" />
        </mxCell>
        <mxCell id="9S0l-wIRz3GOgGVBHp39-84" style="edgeStyle=orthogonalEdgeStyle;rounded=0;orthogonalLoop=1;jettySize=auto;html=1;entryX=0.5;entryY=0;entryDx=0;entryDy=0;" edge="1" parent="1" source="9S0l-wIRz3GOgGVBHp39-37" target="9S0l-wIRz3GOgGVBHp39-35">
          <mxGeometry relative="1" as="geometry" />
        </mxCell>
        <mxCell id="9S0l-wIRz3GOgGVBHp39-37" value="listarPalestrantes" style="rounded=0;whiteSpace=wrap;html=1;" vertex="1" parent="1">
          <mxGeometry x="-87.5" y="310" width="125" height="40" as="geometry" />
        </mxCell>
        <mxCell id="9S0l-wIRz3GOgGVBHp39-90" style="edgeStyle=orthogonalEdgeStyle;rounded=0;orthogonalLoop=1;jettySize=auto;html=1;" edge="1" parent="1" source="9S0l-wIRz3GOgGVBHp39-45" target="9S0l-wIRz3GOgGVBHp39-49">
          <mxGeometry relative="1" as="geometry">
            <Array as="points">
              <mxPoint x="315" y="115" />
            </Array>
          </mxGeometry>
        </mxCell>
        <mxCell id="9S0l-wIRz3GOgGVBHp39-45" value="&lt;font style=&quot;font-size: 10px&quot;&gt;Cadastro não Permitido!&lt;br&gt;Evento com sua lotação Máxima!&lt;br&gt;Escolha outro Evento!&lt;br&gt;&lt;/font&gt;" style="shape=display;whiteSpace=wrap;html=1;" vertex="1" parent="1">
          <mxGeometry x="210" y="340" width="210" height="60" as="geometry" />
        </mxCell>
        <mxCell id="9S0l-wIRz3GOgGVBHp39-76" style="edgeStyle=orthogonalEdgeStyle;rounded=0;orthogonalLoop=1;jettySize=auto;html=1;entryX=0.533;entryY=0.02;entryDx=0;entryDy=0;entryPerimeter=0;" edge="1" parent="1" source="9S0l-wIRz3GOgGVBHp39-47" target="9S0l-wIRz3GOgGVBHp39-70">
          <mxGeometry relative="1" as="geometry" />
        </mxCell>
        <mxCell id="9S0l-wIRz3GOgGVBHp39-47" value="Cadastrar Evento" style="rounded=0;whiteSpace=wrap;html=1;" vertex="1" parent="1">
          <mxGeometry x="450" y="500" width="120" height="50" as="geometry" />
        </mxCell>
        <mxCell id="9S0l-wIRz3GOgGVBHp39-81" style="edgeStyle=orthogonalEdgeStyle;rounded=0;orthogonalLoop=1;jettySize=auto;html=1;entryX=0.46;entryY=-0.04;entryDx=0;entryDy=0;entryPerimeter=0;" edge="1" parent="1" source="9S0l-wIRz3GOgGVBHp39-49" target="9S0l-wIRz3GOgGVBHp39-54">
          <mxGeometry relative="1" as="geometry" />
        </mxCell>
        <mxCell id="9S0l-wIRz3GOgGVBHp39-49" value="Cadastrar Participante?&lt;br&gt;Selecione um Evento" style="shape=display;whiteSpace=wrap;html=1;" vertex="1" parent="1">
          <mxGeometry x="-45" y="90" width="170" height="50" as="geometry" />
        </mxCell>
        <mxCell id="9S0l-wIRz3GOgGVBHp39-65" style="edgeStyle=orthogonalEdgeStyle;rounded=0;orthogonalLoop=1;jettySize=auto;html=1;entryX=0.495;entryY=0.223;entryDx=0;entryDy=0;entryPerimeter=0;" edge="1" parent="1" source="9S0l-wIRz3GOgGVBHp39-51" target="9S0l-wIRz3GOgGVBHp39-6">
          <mxGeometry relative="1" as="geometry" />
        </mxCell>
        <mxCell id="9S0l-wIRz3GOgGVBHp39-51" value="Cadastrar Evento?&lt;br&gt;Informe dados do Evento" style="shape=display;whiteSpace=wrap;html=1;" vertex="1" parent="1">
          <mxGeometry x="541" y="71" width="200" height="50" as="geometry" />
        </mxCell>
        <mxCell id="9S0l-wIRz3GOgGVBHp39-54" value="listar _eventos" style="rounded=0;whiteSpace=wrap;html=1;" vertex="1" parent="1">
          <mxGeometry x="-25" y="160" width="140" height="40" as="geometry" />
        </mxCell>
        <mxCell id="9S0l-wIRz3GOgGVBHp39-127" style="edgeStyle=orthogonalEdgeStyle;rounded=0;orthogonalLoop=1;jettySize=auto;html=1;" edge="1" parent="1" source="9S0l-wIRz3GOgGVBHp39-70" target="9S0l-wIRz3GOgGVBHp39-123">
          <mxGeometry relative="1" as="geometry" />
        </mxCell>
        <mxCell id="9S0l-wIRz3GOgGVBHp39-70" value="&lt;font style=&quot;font-size: 10px&quot;&gt;Evento Cadastrado com Sucesso!&lt;br&gt;Deseja cadastrar Participante?&lt;br&gt;&lt;/font&gt;" style="shape=display;whiteSpace=wrap;html=1;" vertex="1" parent="1">
          <mxGeometry x="410" y="580" width="187.5" height="60" as="geometry" />
        </mxCell>
        <mxCell id="9S0l-wIRz3GOgGVBHp39-131" style="edgeStyle=orthogonalEdgeStyle;rounded=0;orthogonalLoop=1;jettySize=auto;html=1;entryX=0.5;entryY=0;entryDx=0;entryDy=0;" edge="1" parent="1" source="9S0l-wIRz3GOgGVBHp39-115" target="9S0l-wIRz3GOgGVBHp39-130">
          <mxGeometry relative="1" as="geometry" />
        </mxCell>
        <mxCell id="9S0l-wIRz3GOgGVBHp39-115" value="&lt;font style=&quot;font-size: 10px&quot;&gt;Cadastrado com Sucesso!&lt;br&gt;Cadastrar outro Participante?&lt;br&gt;&lt;/font&gt;" style="shape=display;whiteSpace=wrap;html=1;" vertex="1" parent="1">
          <mxGeometry x="-50" y="1030" width="165" height="60" as="geometry" />
        </mxCell>
        <mxCell id="9S0l-wIRz3GOgGVBHp39-125" style="edgeStyle=orthogonalEdgeStyle;rounded=0;orthogonalLoop=1;jettySize=auto;html=1;entryX=1;entryY=0.5;entryDx=0;entryDy=0;entryPerimeter=0;" edge="1" parent="1" source="9S0l-wIRz3GOgGVBHp39-123" target="9S0l-wIRz3GOgGVBHp39-20">
          <mxGeometry relative="1" as="geometry" />
        </mxCell>
        <mxCell id="9S0l-wIRz3GOgGVBHp39-129" value="Sim" style="edgeLabel;html=1;align=center;verticalAlign=middle;resizable=0;points=[];" vertex="1" connectable="0" parent="9S0l-wIRz3GOgGVBHp39-125">
          <mxGeometry x="-0.5523" y="3" relative="1" as="geometry">
            <mxPoint as="offset" />
          </mxGeometry>
        </mxCell>
        <mxCell id="9S0l-wIRz3GOgGVBHp39-126" style="edgeStyle=orthogonalEdgeStyle;rounded=0;orthogonalLoop=1;jettySize=auto;html=1;entryX=0.5;entryY=0;entryDx=0;entryDy=0;" edge="1" parent="1" source="9S0l-wIRz3GOgGVBHp39-123" target="9S0l-wIRz3GOgGVBHp39-26">
          <mxGeometry relative="1" as="geometry">
            <Array as="points">
              <mxPoint x="800" y="680" />
            </Array>
          </mxGeometry>
        </mxCell>
        <mxCell id="9S0l-wIRz3GOgGVBHp39-128" value="Não" style="edgeLabel;html=1;align=center;verticalAlign=middle;resizable=0;points=[];" vertex="1" connectable="0" parent="9S0l-wIRz3GOgGVBHp39-126">
          <mxGeometry x="-0.7732" y="1" relative="1" as="geometry">
            <mxPoint as="offset" />
          </mxGeometry>
        </mxCell>
        <mxCell id="9S0l-wIRz3GOgGVBHp39-123" value="" style="rhombus;whiteSpace=wrap;html=1;" vertex="1" parent="1">
          <mxGeometry x="486.25" y="660" width="35" height="40" as="geometry" />
        </mxCell>
        <mxCell id="9S0l-wIRz3GOgGVBHp39-132" style="edgeStyle=orthogonalEdgeStyle;rounded=0;orthogonalLoop=1;jettySize=auto;html=1;entryX=0.5;entryY=1;entryDx=0;entryDy=0;" edge="1" parent="1" source="9S0l-wIRz3GOgGVBHp39-130" target="9S0l-wIRz3GOgGVBHp39-26">
          <mxGeometry relative="1" as="geometry">
            <Array as="points">
              <mxPoint x="800" y="1140" />
            </Array>
          </mxGeometry>
        </mxCell>
        <mxCell id="9S0l-wIRz3GOgGVBHp39-133" value="Não" style="edgeLabel;html=1;align=center;verticalAlign=middle;resizable=0;points=[];" vertex="1" connectable="0" parent="9S0l-wIRz3GOgGVBHp39-132">
          <mxGeometry x="-0.6825" y="-1" relative="1" as="geometry">
            <mxPoint as="offset" />
          </mxGeometry>
        </mxCell>
        <mxCell id="9S0l-wIRz3GOgGVBHp39-136" style="edgeStyle=orthogonalEdgeStyle;rounded=0;orthogonalLoop=1;jettySize=auto;html=1;" edge="1" parent="1" source="9S0l-wIRz3GOgGVBHp39-130" target="9S0l-wIRz3GOgGVBHp39-138">
          <mxGeometry relative="1" as="geometry">
            <mxPoint x="-40" y="260" as="targetPoint" />
            <Array as="points">
              <mxPoint x="-160" y="1140" />
              <mxPoint x="-160" y="240" />
            </Array>
          </mxGeometry>
        </mxCell>
        <mxCell id="9S0l-wIRz3GOgGVBHp39-139" value="Sim" style="edgeLabel;html=1;align=center;verticalAlign=middle;resizable=0;points=[];" vertex="1" connectable="0" parent="9S0l-wIRz3GOgGVBHp39-136">
          <mxGeometry x="-0.7626" y="-3" relative="1" as="geometry">
            <mxPoint as="offset" />
          </mxGeometry>
        </mxCell>
        <mxCell id="9S0l-wIRz3GOgGVBHp39-130" value="" style="rhombus;whiteSpace=wrap;html=1;" vertex="1" parent="1">
          <mxGeometry x="12.5" y="1120" width="40" height="40" as="geometry" />
        </mxCell>
        <mxCell id="9S0l-wIRz3GOgGVBHp39-140" style="edgeStyle=orthogonalEdgeStyle;rounded=0;orthogonalLoop=1;jettySize=auto;html=1;entryX=0.5;entryY=0;entryDx=0;entryDy=0;" edge="1" parent="1" source="9S0l-wIRz3GOgGVBHp39-138" target="9S0l-wIRz3GOgGVBHp39-37">
          <mxGeometry relative="1" as="geometry" />
        </mxCell>
        <mxCell id="9S0l-wIRz3GOgGVBHp39-141" style="edgeStyle=orthogonalEdgeStyle;rounded=0;orthogonalLoop=1;jettySize=auto;html=1;entryX=0.5;entryY=0;entryDx=0;entryDy=0;" edge="1" parent="1" source="9S0l-wIRz3GOgGVBHp39-138" target="9S0l-wIRz3GOgGVBHp39-33">
          <mxGeometry relative="1" as="geometry" />
        </mxCell>
        <mxCell id="9S0l-wIRz3GOgGVBHp39-138" value="Evento Selecionado" style="shape=manualInput;whiteSpace=wrap;html=1;" vertex="1" parent="1">
          <mxGeometry x="-36.25" y="210" width="152.5" height="60" as="geometry" />
        </mxCell>
      </root>
    </mxGraphModel>
  </diagram>
</mxfile>
